<?xml version="1.0" encoding="UTF-8"?>
<svg id="Layer_2" data-name="Layer 2" xmlns="http://www.w3.org/2000/svg" viewBox="0 0 720 720.33">
  <defs>
    <style>
      .cls-1 {
        fill: #9b7a0f;
      }
    </style>
  </defs>
  <path class="cls-1" d="M316.89,508.41c34.17,15.78,66.17,34.96,95.69,57.34,.11,.08,.25-.02,.19-.14-11.64-22.04-23.33-44.63-34.83-67.72-.02-.05-.08-.08-.14-.07l-60.88,10.36c-.12,.02-.14,.17-.03,.22Z"/>
  <path class="cls-1" d="M360,0C161.18,0,0,161.18,0,360s161.18,360,360,360,360-161.18,360-360S558.82,0,360,0Zm240.29,343.11c-6.44-.63-12.61-2.41-18.91-3.73-.34-.07-.4-.5-.09-.65l9.55-4.58c-15.34-.35-31.5,2.27-48,5.33-68.87,12.78-133.3,28.47-196.87,47.71,13.41,31.32,27.68,61.99,42.35,91.84,.02,.05,.08,.08,.14,.07l156.93-26.7c1.46-.25,2.65,1.11,2.09,2.38l-5.02,11.29c-1.13,2.54-3.57,4.37-6.48,4.86l-139.71,23.77c-.08,.01-.13,.1-.09,.17,17.64,35.26,35.68,69.35,53.3,102.08,1.98,3.68,.9,8.95-2.8,11.19-1.6,.97-3.44,1.41-5.27,1.34-2.17-.08-4.31-.9-5.96-2.4-43.96-40.1-94.88-71.88-151.36-94.47-2.78-1.11-5.07-3.29-5.68-6.04-1.08-4.81,2.29-9.13,7.11-9.95l84.52-14.38c.08-.01,.13-.09,.09-.16-14.26-29.14-28.14-59.05-41.21-89.6-59.13,18.53-117.8,40.18-178.88,65.58-1.94,.81-4.14,.97-6.2,.44l-25.7-6.54c-1.27-.32-1.42-1.95-.22-2.45l4.61-1.92c65.39-27.28,132.04-51.15,199.48-71.52-26.34-63.54-48.85-129.76-63.53-197.79-.03-.12-.2-.13-.24-.02-7.68,19.84-16.26,39.45-25.63,58.57-.63,1.28-1.52,2.48-2.75,3.3-4.26,2.85-9.66,1.87-12.54-1.53-9.17-10.81-17.17-22.33-23.94-34.45-.06-.1-.22-.08-.24,.04-6.98,46.9-12.38,93.99-16.58,141.19-.28,3.12-1.64,6.06-3.89,8.38l-13.03,13.41c-1.09,1.12-3.1,.3-2.96-1.2,5.84-64.66,12.81-129.12,23.2-193.29,.57-3.52,3.25-6.62,7.01-7.37,4.51-.9,8.94,1.49,10.43,5.43,6.16,16.33,14.53,31.76,24.96,46.04,.06,.08,.19,.07,.23-.02,11.36-24.41,21.38-49.51,29.87-74.8,1.24-3.68,5.03-6.03,9.2-5.78,4.16,.29,7.57,3.19,8.24,7,13.84,78.44,39.02,154.86,69.3,227.81,66.1-19.35,132.92-35.36,200.07-47.82,15.17-2.81,30.44-6.02,45.98-6.49,8.22-.24,28.16-.8,37.4,5.53,5.32,3.65,5.51,10.85,.82,15.12-5.91,5.39-15.16,6.55-23.12,5.78Z"/>
</svg>